<svg width="31" height="31" viewBox="0 0 31 31" fill="none" xmlns="http://www.w3.org/2000/svg">
<path d="M13.0957 9.59003H8.29492C5.87305 8.9549 0.39416 9.12019 0.39416 14.1183C0.39416 15.9402 1.30236 17.2201 2.5133 17.8117C0.993574 19.2043 0.273066 19.8612 0.273066 20.7912C0.273066 21.4572 0.543711 22.0712 1.35625 22.4145C0.492246 23.2264 0 23.8161 0 24.9241C0 26.8683 1.69834 28.0011 6.15338 28.0011C10.4371 28.0011 12.9219 26.4015 12.9219 23.5703C12.9219 20.0186 10.1876 20.1494 3.74119 19.7559L4.55434 18.4511C6.20545 18.91 11.7413 19.0565 11.7413 14.3405C11.7413 13.2083 11.2732 12.4206 10.833 11.8539L13.0981 11.6819L13.0957 9.59003ZM9.2558 24.2363C9.2558 26.1775 2.90504 26.1799 2.90504 24.3835C2.90504 23.8906 3.22412 23.4752 3.54502 23.0793C8.25012 23.4002 9.2558 23.2833 9.2558 24.2363ZM6.17941 16.0879C2.98254 16.0879 3.12422 11.7794 6.25207 11.7794C9.25156 11.7794 9.32906 16.0879 6.17941 16.0879ZM14.2503 22.1735V20.2299C15.8699 20.0083 15.8996 20.1088 15.8996 19.5639V12.328C15.8996 11.8133 15.7755 11.8811 14.2503 11.3435L14.521 9.35027H19.6172V19.5651C19.6172 19.9593 19.6414 20.0083 20.0113 20.058L21.2665 20.2299V22.1735H14.2503ZM17.426 7.38128C16.0231 7.38128 15.2106 6.56814 15.2106 5.16466C15.2106 3.76119 16.0231 2.9989 17.426 2.9989C18.8537 2.9989 19.6662 3.763 19.6662 5.16466C19.6662 6.56632 18.8537 7.38128 17.426 7.38128ZM31 21.2193C29.941 21.7357 28.3904 22.2038 26.987 22.2038C24.0577 22.2038 22.9503 21.0231 22.9503 18.2404V11.7915C22.9503 11.4634 23.0139 11.5457 21.0304 11.5457V9.35451C23.1967 9.10808 24.0577 8.02248 24.3283 5.34207H26.6673C26.6673 9.32787 26.5861 9.08447 26.8646 9.08447H30.334V11.5457H26.6673V17.4278C26.6673 17.8468 26.3694 20.5405 30.3346 19.0529L31 21.2193Z" fill="black"/>
</svg>
