<svg width="31" height="31" viewBox="0 0 31 31" fill="none" xmlns="http://www.w3.org/2000/svg">
<path d="M4.12688 2.58337L6.19613 25.8256L15.4871 28.4167L24.8026 25.8166L26.8731 2.58337H4.12688ZM22.5732 7.90892L21.8834 15.6512L21.886 15.6938L21.8834 15.7894L21.3926 21.2015L21.3396 21.6833L15.5 23.2978L15.4948 23.303L9.66684 21.6781L9.27158 17.2025H12.1288L12.3315 19.4784L15.5 20.3373L18.6788 19.4668L19.0146 15.761H12.3703L12.3135 15.1345L12.183 13.6672L12.1158 12.8792H19.2691L19.53 9.99625H8.63092L8.57409 9.36979L8.44492 7.90117L8.37646 7.11325H22.6416L22.5732 7.90892Z" fill="black"/>
</svg>
