<svg width="31" height="31" viewBox="0 0 31 31" fill="none" xmlns="http://www.w3.org/2000/svg">
<g clip-path="url(#clip0_11_15)">
<path d="M19.3798 11.7945C18.8518 11.964 18.4159 12.0549 17.9703 12.2547C17.6167 12.3697 17.2582 12.4908 16.8465 12.624L16.8174 12.6301C16.614 12.7027 16.5946 12.7088 16.4057 12.4363C16.1781 12.1154 16.0134 11.9096 15.6985 11.7158C14.7443 11.1346 13.824 11.3041 12.9667 12.0004C11.9398 12.8299 11.4118 14.059 11.4263 15.5848C11.4409 17.0984 12.2692 18.3396 13.422 18.5455C14.4876 18.715 15.3498 18.267 16.0279 17.3043C16.1296 17.1469 16.2217 16.9834 16.3234 16.8017C16.3621 16.7412 16.396 16.6746 16.4348 16.6019H13.5237C13.2088 16.6019 13.1313 16.3598 13.2379 16.0389C13.4317 15.4515 13.7949 14.4707 14.0081 13.9803C14.0517 13.8713 14.1582 13.6291 14.3423 13.6291H19.2393C19.4573 12.8178 19.8109 12.0004 20.2856 11.2254C21.3851 9.41503 22.6735 8.47049 24.5093 8.07694C26.0496 7.73788 27.4979 7.92557 28.8154 9.03964C30.007 10.0568 30.7432 11.4373 30.9418 13.2476C31.1985 15.7967 30.6076 17.8674 29.1642 19.6414C28.2099 20.9068 26.9893 21.7 25.5846 22.0572C25.3134 22.1178 25.047 22.148 24.7854 22.1783C24.6449 22.1904 24.5093 22.2086 24.3737 22.2267C23.0029 22.1904 21.7484 21.7 20.6924 20.5678C19.9513 19.7625 19.4379 18.7756 19.186 17.6312C19.0068 18.0732 18.7985 18.5031 18.5079 18.9088C17.4617 20.701 16.0424 21.815 14.2503 22.1117C12.7681 22.3599 11.3973 22.0027 10.1863 20.8705C9.07229 19.8109 8.43775 18.4183 8.27307 16.6807C8.07447 14.6221 8.55885 12.7209 9.55182 11.1527C10.6271 9.39686 12.0463 8.2828 13.7804 7.88924C15.1996 7.51385 16.5559 7.77421 17.7813 8.81561C18.5806 9.47557 19.1521 10.3777 19.5299 11.4736C19.622 11.6432 19.559 11.74 19.3798 11.7945ZM2.33947 12.1336C2.27893 12.1336 2.26391 12.0973 2.29394 12.0367L2.61121 11.5281C2.64124 11.4736 2.7168 11.4373 2.77735 11.4373H8.1665C8.22463 11.4373 8.23916 11.4918 8.2101 11.5463L7.95338 12.0367C7.92432 12.0973 7.84682 12.1517 7.80322 12.1517L2.33947 12.1336ZM0.0602957 13.8713C-5.74436e-05 13.8713 -0.0151699 13.8289 0.0150551 13.7744L0.331982 13.2658C0.362207 13.2113 0.437672 13.1689 0.49788 13.1689H7.38182C7.43994 13.1689 7.469 13.2295 7.45447 13.284L7.33338 13.7381C7.31885 13.8107 7.26072 13.8531 7.19776 13.8531L0.0602957 13.8713ZM3.66763 15.4939C3.6376 15.5484 3.65261 15.6029 3.71268 15.6029L7.00401 15.6211C7.0476 15.6211 7.11057 15.5666 7.11057 15.4939L7.13963 15.0398C7.13963 14.9611 7.11057 14.9066 7.0476 14.9066H4.02994C3.9694 14.9066 3.90933 14.9611 3.87882 15.0217L3.66763 15.4939ZM27.9581 14.4041C27.9484 14.2467 27.9435 14.1135 27.9242 13.9803C27.6529 12.1154 26.2773 11.0558 24.8435 11.4736C23.4388 11.8672 22.5331 12.9812 22.2037 14.7553C21.9324 16.2265 22.504 17.716 23.589 18.3215C24.4221 18.7756 25.2504 18.7211 26.0496 18.2064C27.2412 17.383 27.8903 16.2265 27.9678 14.6039C27.9629 14.5312 27.9629 14.4646 27.9581 14.4041Z" fill="black"/>
</g>
<defs>
<clipPath id="clip0_11_15">
<rect width="31" height="31" fill="white"/>
</clipPath>
</defs>
</svg>
