<svg width="31" height="31" viewBox="0 0 31 31" fill="none" xmlns="http://www.w3.org/2000/svg">
<g clip-path="url(#clip0_12_50)">
<path fill-rule="evenodd" clip-rule="evenodd" d="M0 0H31V31H0V0ZM23.6982 25.9883C22.2606 25.9883 21.4481 25.2392 20.8242 24.2188L18.4566 25.5944C19.3117 27.2839 21.0593 28.573 23.7654 28.573C26.5321 28.573 28.5923 27.1366 28.5923 24.5133C28.5923 22.081 27.1947 20.9999 24.7199 19.9369L23.9914 19.6256C22.7411 19.0831 22.1999 18.7305 22.1999 17.856C22.1999 17.1495 22.7424 16.6082 23.5949 16.6082C24.4306 16.6082 24.9692 16.9609 25.4691 17.856L27.7373 16.4003C26.7775 14.7121 25.4471 14.0675 23.5949 14.0675C20.9935 14.0675 19.3285 15.7312 19.3285 17.9167C19.3285 20.2869 20.7235 21.4094 22.8263 22.3045L23.5548 22.6171C24.884 23.1983 25.6757 23.5522 25.6757 24.5507C25.6757 25.3851 24.9046 25.9883 23.6982 25.9883ZM12.409 25.969C11.408 25.969 10.9908 25.2844 10.5335 24.4706L8.16204 25.907C8.84921 27.3614 10.2003 28.5678 12.5317 28.5678C15.1138 28.5678 16.8821 27.1947 16.8821 24.1787V14.2329H13.9694V24.14C13.9694 25.5957 13.3649 25.969 12.4077 25.969H12.409Z" fill="black"/>
</g>
<defs>
<clipPath id="clip0_12_50">
<rect width="31" height="31" fill="white"/>
</clipPath>
</defs>
</svg>
