<svg width="28" height="28" viewBox="0 0 28 28" fill="none" xmlns="http://www.w3.org/2000/svg">
<path d="M20.6582 14.3417C20.5499 14.2333 20.4213 14.1473 20.2798 14.0886C20.1383 14.0299 19.9866 13.9997 19.8333 13.9997C19.6801 13.9997 19.5284 14.0299 19.3869 14.0886C19.2453 14.1473 19.1168 14.2333 19.0085 14.3417L17.1488 16.2014C16.2867 15.9447 14.6778 15.3614 13.6582 14.3417C12.6385 13.3221 12.0552 11.7132 11.7985 10.8511L13.6582 8.99141C13.7666 8.88316 13.8526 8.75459 13.9113 8.61305C13.97 8.47152 14.0002 8.3198 14.0002 8.16658C14.0002 8.01335 13.97 7.86163 13.9113 7.7201C13.8526 7.57857 13.7666 7.45 13.6582 7.34174L8.9915 2.67508C8.88325 2.56664 8.75467 2.48061 8.61314 2.42192C8.47161 2.36322 8.31989 2.33301 8.16666 2.33301C8.01344 2.33301 7.86172 2.36322 7.72019 2.42192C7.57866 2.48061 7.45008 2.56664 7.34183 2.67508L4.17783 5.83908C3.7345 6.28241 3.48483 6.89141 3.49416 7.51324C3.521 9.17458 3.96083 14.9449 8.5085 19.4926C13.0562 24.0402 18.8265 24.4789 20.489 24.5069H20.5217C21.1377 24.5069 21.7198 24.2642 22.1608 23.8232L25.3248 20.6592C25.4333 20.551 25.5193 20.4224 25.578 20.2809C25.6367 20.1394 25.6669 19.9876 25.6669 19.8344C25.6669 19.6812 25.6367 19.5295 25.578 19.3879C25.5193 19.2464 25.4333 19.1178 25.3248 19.0096L20.6582 14.3417ZM20.51 22.1724C19.054 22.1479 14.0723 21.7571 10.1582 17.8417C6.23116 13.9147 5.85083 8.91558 5.8275 7.48874L8.16666 5.14958L11.1837 8.16658L9.67517 9.67508C9.53804 9.8121 9.43721 9.98114 9.38181 10.1669C9.3264 10.3527 9.31816 10.5493 9.35783 10.7391C9.38583 10.8732 10.0707 14.0547 12.0073 15.9914C13.944 17.9281 17.1255 18.6129 17.2597 18.6409C17.4493 18.6817 17.6462 18.6741 17.8321 18.6189C18.018 18.5636 18.1871 18.4625 18.3237 18.3247L19.8333 16.8162L22.8503 19.8332L20.51 22.1724Z" fill="black"/>
</svg>
