<svg width="31" height="31" viewBox="0 0 31 31" fill="none" xmlns="http://www.w3.org/2000/svg">
<path d="M31 15.0983C31 13.0445 28.4283 11.098 24.4848 9.89154C25.3955 5.87317 24.9912 2.675 23.2087 1.65071C22.7768 1.40881 22.2879 1.28704 21.793 1.29808V2.706C22.0836 2.706 22.3174 2.76413 22.5138 2.87133C23.3727 3.36475 23.746 5.24025 23.4554 7.65438C23.3856 8.24854 23.272 8.87371 23.1325 9.51179C21.8119 9.19357 20.4716 8.96358 19.1205 8.82333C18.3156 7.71287 17.4375 6.65739 16.492 5.66392C18.5522 3.74967 20.4858 2.70083 21.8007 2.70083V1.29163C20.0622 1.29163 17.7875 2.53033 15.4871 4.67838C13.1879 2.54454 10.912 1.31746 9.17471 1.31746V2.72538C10.4832 2.72538 12.4233 3.76904 14.4835 5.67038C13.5987 6.60038 12.7139 7.65438 11.873 8.82333C10.5191 8.96202 9.17645 9.19422 7.85462 9.51825C7.71493 8.91348 7.605 8.30222 7.52525 7.68667C7.22817 5.27125 7.595 3.39575 8.44879 2.89717C8.63737 2.7835 8.88408 2.73183 9.17471 2.73183V1.32392C8.64513 1.32392 8.16333 1.43758 7.74742 1.67654C5.97137 2.70083 5.57354 5.89125 6.48933 9.898C2.55879 11.1122 0 13.051 0 15.0983C0 17.152 2.57171 19.0985 6.51517 20.3037C5.60454 24.3233 6.00883 27.5215 7.79133 28.5445C8.20208 28.7848 8.68258 28.8984 9.21217 28.8984C10.9507 28.8984 13.2254 27.6597 15.5258 25.5117C17.825 27.6468 20.0996 28.8726 21.8382 28.8726C22.3369 28.8831 22.8295 28.761 23.2655 28.5187C25.0415 27.4957 25.4394 24.3053 24.5236 20.2985C28.4412 19.0921 31 17.1455 31 15.0983ZM22.7721 10.8835C22.5266 11.7281 22.2422 12.5608 21.9196 13.379C21.3915 12.3519 20.8117 11.3521 20.1823 10.3837C21.08 10.5167 21.9454 10.6807 22.7734 10.8835H22.7721ZM19.8787 17.6131C19.4056 18.4391 18.8976 19.2445 18.3559 20.0273C16.46 20.1943 14.5533 20.1965 12.657 20.0337C11.5694 18.4801 10.6182 16.8352 9.81408 15.1176C10.617 13.396 11.5641 11.7454 12.6454 10.1835C14.5408 10.016 16.4471 10.0134 18.343 10.1757C18.8674 10.9275 19.3802 11.7309 19.8723 12.5782C20.3528 13.4049 20.7894 14.2445 21.1872 15.0918C20.785 15.9494 20.3485 16.7905 19.8787 17.6131ZM21.9196 16.7916C22.2606 17.6377 22.5525 18.485 22.7915 19.3065C21.9648 19.5093 21.0916 19.6798 20.1887 19.8115C20.8155 18.8343 21.3932 17.8264 21.9196 16.7916ZM15.5129 23.5341C14.9252 22.927 14.3375 22.2515 13.7562 21.5114C14.3246 21.5372 14.9058 21.5566 15.4935 21.5566C16.0877 21.5566 16.6754 21.5437 17.2502 21.5114C16.6819 22.2515 16.0942 22.927 15.5129 23.5341ZM10.8112 19.8115C9.94034 19.6854 9.07572 19.519 8.22017 19.313C8.45396 18.4979 8.74458 17.657 9.07267 16.8175C9.33229 17.3212 9.60483 17.8275 9.90192 18.3339C10.199 18.8389 10.5012 19.3323 10.8112 19.8115ZM15.4806 6.66238C16.0683 7.26946 16.656 7.945 17.2373 8.68513C16.669 8.65929 16.0877 8.63992 15.5 8.63992C14.9058 8.63992 14.3181 8.65283 13.7433 8.68513C14.3117 7.945 14.8994 7.26946 15.4806 6.66238ZM10.8048 10.385C10.1782 11.3601 9.6005 12.3658 9.07396 13.3984C8.74228 12.5749 8.4513 11.7356 8.20208 10.8835C9.02875 10.6872 9.90192 10.5167 10.8048 10.385ZM5.08658 18.2951C2.84942 17.3419 1.40275 16.0903 1.40275 15.0983C1.40275 14.1063 2.84942 12.8482 5.08658 11.9014C5.62908 11.6676 6.22325 11.4583 6.83679 11.2633C7.19717 12.5007 7.67121 13.7898 8.25762 15.1112C7.70397 16.354 7.23573 17.6331 6.85617 18.9397C6.25612 18.7539 5.66555 18.5388 5.08658 18.2951ZM8.48625 27.3239C7.62729 26.833 7.254 24.955 7.54462 22.5421C7.61437 21.948 7.72804 21.3215 7.86754 20.6834C9.10496 20.987 10.4573 21.2208 11.8795 21.3732C12.6844 22.4836 13.5625 23.5391 14.508 24.5326C12.4478 26.4468 10.5142 27.4957 9.19925 27.4957C8.95117 27.4984 8.70626 27.4398 8.48625 27.3252V27.3239ZM23.4747 22.5098C23.7718 24.924 23.405 26.8008 22.5512 27.2993C22.3626 27.413 22.1159 27.4634 21.8253 27.4634C20.5168 27.4634 18.5767 26.421 16.5165 24.5184C17.4581 23.529 18.3303 22.476 19.127 21.3667C20.4809 21.228 21.8235 20.9958 23.1454 20.6718C23.2913 21.3099 23.4037 21.9221 23.4747 22.5098ZM25.907 18.2951C25.3645 18.5289 24.7703 18.7382 24.1567 18.9332C23.7705 17.62 23.2958 16.3344 22.7359 15.0853C23.3172 13.7717 23.7835 12.4891 24.1374 11.2568C24.7393 11.4432 25.332 11.6583 25.9134 11.9014C28.1506 12.8546 29.5972 14.1063 29.5972 15.0983C29.5908 16.0903 28.1441 17.3483 25.907 18.2951Z" fill="black"/>
<path d="M15.4935 17.9864C16.2595 17.9864 16.9942 17.6821 17.5358 17.1405C18.0774 16.5989 18.3817 15.8642 18.3817 15.0982C18.3817 14.3323 18.0774 13.5976 17.5358 13.056C16.9942 12.5144 16.2595 12.2101 15.4935 12.2101C14.7276 12.2101 13.9929 12.5144 13.4513 13.056C12.9097 13.5976 12.6054 14.3323 12.6054 15.0982C12.6054 15.8642 12.9097 16.5989 13.4513 17.1405C13.9929 17.6821 14.7276 17.9864 15.4935 17.9864Z" fill="black"/>
</svg>
