<svg width="31" height="31" viewBox="0 0 31 31" fill="none" xmlns="http://www.w3.org/2000/svg">
<g clip-path="url(#clip0_11_13)">
<path d="M14.6204 21.454C14.6058 21.483 14.5913 21.5063 14.6204 21.454V21.454ZM26.6871 17.2399C25.7126 17.2399 24.7516 17.4627 23.8777 17.8938C23.592 17.3174 23.2965 16.8137 23.2481 16.4359C23.1899 15.9951 23.127 15.7335 23.1948 15.2104C23.2626 14.6873 23.5677 13.9462 23.5629 13.8929C23.5581 13.8396 23.4951 13.5732 22.8702 13.5683C22.2454 13.5635 21.7077 13.6894 21.6448 13.8541C21.5342 14.155 21.4484 14.4644 21.3881 14.7793C21.2767 15.346 20.1393 17.3707 19.4951 18.4266C19.282 18.0149 19.1028 17.6516 19.064 17.361C19.0059 16.9202 18.9429 16.6587 19.0107 16.1355C19.0786 15.6124 19.3837 14.8713 19.3789 14.818C19.374 14.7648 19.3111 14.4984 18.6872 14.4935C18.0633 14.4887 17.5247 14.6146 17.4617 14.7793C17.3987 14.944 17.3309 15.3315 17.205 15.7044C17.0791 16.0774 15.563 19.4487 15.1667 20.3254C14.9633 20.771 14.7889 21.1294 14.663 21.3716C14.6436 21.4104 14.6291 21.4346 14.6194 21.454C14.6339 21.4298 14.6436 21.4055 14.6436 21.4152C14.5371 21.6235 14.4741 21.7398 14.4741 21.7398V21.7446C14.3917 21.8996 14.2997 22.0401 14.2561 22.0401C14.2271 22.0401 14.1641 21.6332 14.2707 21.0762C14.4983 19.904 15.036 18.0827 15.0311 18.0198C15.0263 17.9859 15.1328 17.671 14.6775 17.5015C14.2367 17.3416 14.0769 17.608 14.0382 17.608C13.9994 17.608 13.9703 17.7049 13.9703 17.7049C13.9703 17.7049 14.4596 15.6512 13.0307 15.6512C12.1394 15.6512 10.8994 16.6296 10.2901 17.516C9.9074 17.7243 9.07912 18.1748 8.20725 18.6543L7.20459 19.2065C7.18037 19.1823 7.161 19.158 7.13678 19.1338C5.40271 17.2835 2.20196 15.9757 2.33759 13.4909C2.38603 12.5851 2.70087 10.2068 8.49303 7.31991C13.2399 4.95616 17.0345 5.60523 17.6884 7.04866C18.6281 9.10726 15.6589 12.9387 10.7299 13.4909C8.8505 13.6991 7.86334 12.9726 7.61631 12.7013C7.35959 12.4155 7.32084 12.401 7.22396 12.4543C7.06412 12.5415 7.16584 12.7934 7.22396 12.9435C7.36928 13.3262 7.97475 14.0043 9.00646 14.3434C9.91225 14.6388 12.1152 14.8035 14.7783 13.7718C17.7707 12.619 20.1006 9.40757 19.4167 6.71929C18.7211 3.98741 14.1912 3.09132 9.90837 4.61226C7.35571 5.51804 4.59575 6.9421 2.61078 8.79726C0.251871 11.006 -0.124973 12.929 0.0300271 13.733C0.582215 16.586 4.51437 18.446 6.08762 19.8216L5.86965 19.9427C5.08012 20.3351 2.08281 21.9044 1.33203 23.561C0.484371 25.4404 1.4725 26.7869 2.12059 26.971C4.14528 27.5329 6.21743 26.5205 7.3315 24.8591C8.44556 23.1977 8.30993 21.0277 7.7965 20.0396C7.79165 20.0251 7.78196 20.0154 7.77712 20.0009C8.35834 19.6566 8.9445 19.3207 9.5354 18.9934C9.34165 19.5165 9.20118 20.1462 9.12853 21.0568C9.04134 22.1224 9.48212 23.5029 10.0537 24.0454C10.3056 24.2827 10.6097 24.2876 10.7996 24.2876C11.4681 24.2876 11.7684 23.7354 12.1026 23.0766C12.5143 22.2726 12.8776 21.3377 12.8776 21.3377C12.8776 21.3377 12.4223 23.8662 13.6671 23.8662C14.1224 23.8662 14.5777 23.2801 14.7812 22.9798V22.9846C14.7812 22.9846 14.7909 22.9652 14.8151 22.9265C14.8635 22.8538 14.8877 22.8102 14.8877 22.8102V22.7957C15.0718 22.4809 15.4738 21.7591 16.0793 20.5676C16.864 19.0273 17.6138 17.1043 17.6138 17.1043C17.6865 17.5267 17.7872 17.9442 17.9141 18.354C18.0497 18.8141 18.3355 19.3179 18.5632 19.8071C18.3791 20.059 18.2677 20.2043 18.2677 20.2043C18.2677 20.2082 18.2697 20.2111 18.2726 20.214C18.1272 20.4077 17.9626 20.616 17.793 20.8194C17.174 21.5557 16.4368 22.3985 16.3399 22.6407C16.2237 22.9265 16.2527 23.1396 16.4755 23.3043C16.6402 23.4302 16.9308 23.4496 17.236 23.4254C17.793 23.3866 18.1854 23.251 18.3743 23.1638C18.7227 23.039 19.052 22.8662 19.3527 22.6504C19.9582 22.2048 20.3263 21.5654 20.2924 20.7226C20.273 20.2576 20.1229 19.7926 19.9388 19.3566C19.9921 19.2791 20.0502 19.1968 20.1035 19.1144C20.7338 18.1739 21.3018 17.1931 21.8037 16.1782C21.8763 16.6005 21.9761 17.0181 22.104 17.4279C22.2202 17.8202 22.4479 18.2513 22.6562 18.6727C21.7552 19.4041 21.1982 20.2518 21.0054 20.8088C20.647 21.8405 20.9279 22.3055 21.4559 22.4121C21.6932 22.4605 22.0323 22.3491 22.2842 22.2425C22.6581 22.1176 23.0107 21.9364 23.3294 21.7049C23.9349 21.2593 24.521 20.6344 24.4813 19.7868C24.4667 19.4041 24.3602 19.0214 24.2197 18.6533C24.9802 18.3336 25.9683 18.1593 27.2277 18.3046C29.9247 18.6194 30.4527 20.305 30.3509 21.0074C30.2492 21.7097 29.6825 22.1021 29.4936 22.2183C29.3047 22.3346 29.2466 22.3782 29.2611 22.4654C29.2853 22.5913 29.3725 22.5864 29.5323 22.5574C29.7552 22.5186 30.9467 21.9858 31 20.6829C31.0775 19.036 29.4936 17.2244 26.6891 17.2389L26.6871 17.2399ZM5.89872 24.2488C5.00746 25.2224 3.75875 25.5905 3.22109 25.2805C2.64468 24.9454 2.87234 23.5126 3.9709 22.475C4.63934 21.8454 5.50153 21.2641 6.07309 20.9057C6.20387 20.8282 6.39278 20.7119 6.62528 20.5714C6.64417 20.5593 6.66356 20.548 6.6834 20.5375C6.727 20.5085 6.77543 20.4843 6.82387 20.4552C7.22493 21.9277 6.8384 23.2258 5.89872 24.2479V24.2488ZM12.4068 19.8216C12.0968 20.5821 11.4438 22.5196 11.0457 22.4179C10.7066 22.3307 10.4983 20.8534 10.9779 19.4002C11.2201 18.6688 11.7335 17.7969 12.0387 17.4579C12.5279 16.9105 13.0655 16.7362 13.1915 16.9541C13.361 17.2399 12.6005 19.3469 12.4068 19.8216ZM17.7833 22.3888C17.6526 22.4566 17.5315 22.5002 17.4733 22.4663C17.4297 22.4421 17.5266 22.3501 17.5266 22.3501C17.5266 22.3501 18.1999 21.6284 18.4663 21.299C18.6213 21.1052 18.8005 20.8776 18.9943 20.6257C18.9943 20.6499 18.9991 20.6741 18.9991 20.7032C18.9933 21.5702 18.1602 22.1563 17.7824 22.3888H17.7833ZM21.9296 21.4443C21.8327 21.3765 21.8472 21.1488 22.1718 20.4416C22.2977 20.1655 22.5883 19.7005 23.0921 19.2549C23.1492 19.4235 23.1802 19.5998 23.1841 19.778C23.1793 20.8679 22.3994 21.2748 21.9296 21.4443Z" fill="black"/>
</g>
<defs>
<clipPath id="clip0_11_13">
<rect width="31" height="31" fill="white"/>
</clipPath>
</defs>
</svg>
