<svg width="31" height="31" viewBox="0 0 31 31" fill="none" xmlns="http://www.w3.org/2000/svg">
<g clip-path="url(#clip0_12_75)">
<path fill-rule="evenodd" clip-rule="evenodd" d="M27.125 8.71875V27.125C27.125 28.1527 26.7167 29.1383 25.99 29.865C25.2633 30.5917 24.2777 31 23.25 31V29.0625C23.7639 29.0625 24.2567 28.8584 24.62 28.495C24.9834 28.1317 25.1875 27.6389 25.1875 27.125V8.71875H21.3125C20.5417 8.71875 19.8025 8.41256 19.2575 7.86753C18.7124 7.3225 18.4062 6.58329 18.4062 5.8125V1.9375H7.75C7.23614 1.9375 6.74333 2.14163 6.37998 2.50498C6.01663 2.86833 5.8125 3.36114 5.8125 3.875V21.3125H3.875V3.875C3.875 2.84729 4.28326 1.86166 5.00996 1.13496C5.73666 0.408258 6.72229 0 7.75 0L18.4062 0L27.125 8.71875ZM0 28.7544C0.0109724 29.0597 0.0857754 29.3594 0.21959 29.634C0.353405 29.9086 0.543264 30.1522 0.776937 30.349C1.02881 30.5582 1.33494 30.721 1.70306 30.8372C2.07119 30.9535 2.49938 31.0136 2.9915 31.0136C3.64637 31.0136 4.2005 30.9109 4.65387 30.7074C5.11306 30.5021 5.45987 30.2192 5.70012 29.8549C5.94446 29.4767 6.07059 29.0342 6.06244 28.5839C6.06244 28.1499 5.97525 27.7896 5.80087 27.4989C5.62361 27.2086 5.37302 26.97 5.07431 26.8073C4.73173 26.6178 4.36276 26.4807 3.97962 26.4004L2.77644 26.1214C2.49214 26.0695 2.22362 25.9529 1.99175 25.7804C1.90359 25.7121 1.83262 25.6242 1.78452 25.5236C1.73641 25.423 1.7125 25.3125 1.71469 25.2011C1.71469 24.8988 1.83288 24.6508 2.07119 24.4571C2.31337 24.2614 2.64469 24.1626 3.06512 24.1626C3.34219 24.1626 3.5805 24.2052 3.782 24.2943C3.96677 24.3702 4.12986 24.4907 4.25669 24.645C4.37593 24.7888 4.45602 24.961 4.48919 25.1449H5.94231C5.9187 24.7505 5.78514 24.3706 5.55675 24.0483C5.31187 23.7005 4.977 23.4259 4.588 23.2539C4.11223 23.0452 3.59608 22.9446 3.07675 22.9594C2.50906 22.9594 2.00725 23.0562 1.57325 23.25C1.13731 23.4418 0.79825 23.715 0.55025 24.0657C0.304188 24.4183 0.182125 24.831 0.182125 25.3038C0.182125 25.6932 0.259625 26.0322 0.420437 26.319C0.579313 26.6077 0.806 26.8421 1.1005 27.0301C1.39694 27.2141 1.74375 27.3536 2.14675 27.4427L3.34412 27.7217C3.74519 27.8167 4.04163 27.9407 4.23925 28.0957C4.33588 28.1689 4.41332 28.2644 4.46495 28.3741C4.51658 28.4837 4.54085 28.6043 4.53569 28.7254C4.53569 28.9385 4.4795 29.1264 4.371 29.2873C4.24608 29.4584 4.0736 29.5892 3.875 29.6631C3.65994 29.7542 3.39256 29.7987 3.07481 29.7987C2.84812 29.7987 2.64081 29.7736 2.45481 29.7213C2.28349 29.6739 2.12115 29.5986 1.97431 29.4984C1.84541 29.4149 1.73504 29.3057 1.65005 29.1777C1.56506 29.0497 1.50727 28.9057 1.48025 28.7544H0ZM13.3261 31.6394L12.3438 30.2076C12.6848 29.8937 12.9444 29.5062 13.1207 29.0451C13.299 28.582 13.3881 28.0627 13.3881 27.4834V26.5128C13.3881 25.7939 13.2525 25.1701 12.9851 24.6392C12.7348 24.1247 12.3377 23.696 11.8439 23.4069C11.3479 23.1163 10.757 22.971 10.0673 22.971C9.38719 22.971 8.79625 23.1163 8.29638 23.4069C7.80037 23.6956 7.41869 24.1044 7.14937 24.6392C6.87244 25.2241 6.73641 25.8658 6.75219 26.5128V27.4815C6.75219 28.1984 6.88588 28.8203 7.14937 29.3512C7.41869 29.8801 7.80037 30.2909 8.29638 30.5834C8.83811 30.8812 9.44927 31.0297 10.0673 31.0136C10.4629 31.0154 10.856 30.9499 11.2297 30.8198L11.7994 31.6374H13.3261V31.6394ZM8.25763 27.5125V26.5011C8.25763 26.0245 8.33125 25.6176 8.4785 25.2805C8.60996 24.9683 8.82857 24.7006 9.10819 24.5094C9.39439 24.3274 9.72815 24.2343 10.0673 24.242C10.4392 24.242 10.7589 24.3311 11.0263 24.5094C11.3082 24.698 11.5275 24.9665 11.656 25.2805C11.8052 25.6176 11.8788 26.0245 11.8788 26.5011V27.5125C11.8788 27.8302 11.8439 28.117 11.7761 28.3747C11.7083 28.6266 11.6076 28.8474 11.4758 29.0334L11.2704 28.7622L11.067 28.4774H9.64681L10.5206 29.7367C10.3663 29.7996 10.2009 29.8305 10.0343 29.8278C9.69847 29.8288 9.36997 29.7296 9.09075 29.543C8.81343 29.3468 8.59824 29.0751 8.47075 28.7603C8.31825 28.3624 8.24582 27.9384 8.25763 27.5125ZM15.9805 29.5604H19.2665V30.8663H14.4479V23.1182H15.9786V29.5604H15.9805Z" fill="black"/>
</g>
<defs>
<clipPath id="clip0_12_75">
<rect width="31" height="31" fill="white"/>
</clipPath>
</defs>
</svg>
