<svg width="45" height="45" viewBox="0 0 45 45" fill="none" xmlns="http://www.w3.org/2000/svg">
<path d="M13.125 24.375C13.6223 24.375 14.0992 24.1775 14.4508 23.8258C14.8025 23.4742 15 22.9973 15 22.5C15 22.0027 14.8025 21.5258 14.4508 21.1742C14.0992 20.8225 13.6223 20.625 13.125 20.625C12.6277 20.625 12.1508 20.8225 11.7992 21.1742C11.4475 21.5258 11.25 22.0027 11.25 22.5C11.25 22.9973 11.4475 23.4742 11.7992 23.8258C12.1508 24.1775 12.6277 24.375 13.125 24.375Z" fill="black" stroke="black" stroke-width="1.5" stroke-linecap="round" stroke-linejoin="round"/>
<path d="M31.875 31.875H13.125C10.6386 31.875 8.25403 30.8873 6.49587 29.1291C4.73772 27.371 3.75 24.9864 3.75 22.5C3.75 20.0136 4.73772 17.629 6.49587 15.8709C8.25403 14.1127 10.6386 13.125 13.125 13.125H31.875C34.3614 13.125 36.746 14.1127 38.5041 15.8709C40.2623 17.629 41.25 20.0136 41.25 22.5C41.25 24.9864 40.2623 27.371 38.5041 29.1291C36.746 30.8873 34.3614 31.875 31.875 31.875Z" stroke="black" stroke-width="1.5"/>
</svg>
